<svg width="291" height="485" viewBox="0 0 291 485" fill="none" xmlns="http://www.w3.org/2000/svg">
<path d="M97.1899 335.658C94.5552 297.624 95.1481 265.309 98.9432 238.916C96.3588 235.857 94.6536 232.154 94.0099 228.201L92.2693 217.486L84.9075 225.794C81.5314 229.599 76.9457 232.122 71.9252 232.936C66.9047 233.749 61.7573 232.804 57.353 230.26C57.0835 230.101 56.814 229.943 56.5508 229.771C55.4137 232.778 54.2776 235.929 53.1426 239.223C43.9482 266.029 36.8812 297.269 32.1826 332.099C26.3077 375.637 24.1296 424.909 25.661 478.545C25.6806 479.244 25.9175 479.919 26.3387 480.476C26.7599 481.034 27.3445 481.446 28.0109 481.656C28.6774 481.865 29.3925 481.861 30.0567 481.645C30.7209 481.428 31.3012 481.01 31.7166 480.448L65.7896 434.329C65.9252 434.146 66.0989 433.993 66.2987 433.883C66.4985 433.773 66.7197 433.707 66.9473 433.69C67.1748 433.673 67.4034 433.706 67.6172 433.785C67.8311 433.865 68.0253 433.99 68.1864 434.152L111.273 477.257C111.783 477.77 112.445 478.103 113.16 478.208C113.875 478.314 114.605 478.185 115.241 477.842C115.877 477.498 116.386 476.959 116.69 476.303C116.995 475.647 117.08 474.911 116.932 474.203C111.245 446.763 101.115 392.276 97.1899 335.658Z" fill="#231F20"/>
<path d="M277.96 410.524C261.335 392.444 228.758 355.676 197.383 312.71C172.019 278 152.711 246.493 139.595 218.543L137.433 229.102C136.283 234.737 132.981 239.701 128.23 242.938C123.478 246.176 117.652 247.431 111.99 246.436C116.33 262.613 121.964 282.961 128.52 305.088C142.949 353.747 164.927 421.271 187.7 466.565C188.026 467.215 188.554 467.741 189.204 468.065C189.854 468.389 190.591 468.494 191.306 468.363C192.021 468.232 192.673 467.873 193.167 467.34C193.66 466.806 193.967 466.127 194.041 465.404L200.607 401.754C200.631 401.533 200.7 401.32 200.811 401.128C200.921 400.935 201.071 400.769 201.251 400.638C201.43 400.507 201.635 400.416 201.851 400.369C202.068 400.323 202.293 400.322 202.51 400.368L274.768 416.091C275.463 416.238 276.188 416.16 276.836 415.869C277.485 415.577 278.024 415.088 278.377 414.47C278.729 413.852 278.877 413.139 278.798 412.432C278.719 411.725 278.418 411.062 277.938 410.537L277.96 410.524Z" fill="#231F20"/>
<path d="M280.303 408.377C263.716 390.338 231.225 353.678 199.942 310.826C177.945 280.693 160.517 253.031 147.781 228.039C151.266 231.621 155.863 233.915 160.819 234.545C165.776 235.175 170.799 234.104 175.069 231.508C179.339 228.912 182.602 224.944 184.326 220.252C186.049 215.56 186.131 210.422 184.558 205.678L181.071 195.15L191.216 199.001C196.044 200.831 201.361 200.911 206.241 199.226C211.122 197.541 215.258 194.199 217.931 189.78C220.603 185.36 221.643 180.144 220.87 175.037C220.097 169.93 217.559 165.255 213.698 161.826L205.404 154.461L216.114 152.72C221.218 151.898 225.873 149.311 229.266 145.408C232.659 141.505 234.575 136.535 234.681 131.364C234.787 126.193 233.076 121.149 229.846 117.11C226.616 113.072 222.071 110.295 217.005 109.265L206.143 107.045L214.548 100.212C218.54 96.9437 221.262 92.3798 222.241 87.3129C223.22 82.246 222.395 76.9959 219.91 72.474C217.424 67.952 213.433 64.4436 208.632 62.5578C203.83 60.6719 198.52 60.5275 193.623 62.1498L189.127 63.647L184.898 60.8811L186.936 55.4889C188.766 50.6588 188.845 45.3401 187.161 40.4573C185.478 35.5746 182.137 31.4366 177.719 28.7628C173.302 26.089 168.088 25.0484 162.983 25.822C157.878 26.5956 153.206 29.1344 149.778 32.9971L142.417 41.2947L140.676 30.5801C139.855 25.4735 137.268 20.8171 133.368 17.4226C129.467 14.0281 124.499 12.1107 119.33 12.0046C114.161 11.8986 109.119 13.6106 105.082 16.8422C101.046 20.0738 98.2705 24.6202 97.2406 29.6888L95.0213 40.5557L88.1731 32.147C84.9058 28.1534 80.3439 25.4303 75.2793 24.4505C70.2146 23.4707 64.9669 24.2959 60.447 26.783C55.927 29.2701 52.4202 33.262 50.5352 38.0658C48.6501 42.8697 48.5059 48.1823 50.1275 53.0814L53.615 63.6089L43.4695 59.7709C38.6416 57.9407 33.3252 57.861 28.4446 59.5457C23.5641 61.2304 19.428 64.5729 16.7553 68.9922C14.0827 73.4114 13.0426 78.628 13.8158 83.7349C14.5891 88.8419 17.1267 93.5163 20.9877 96.9454L29.2816 104.311L18.5718 106.052C13.4675 106.874 8.81318 109.461 5.42019 113.364C2.02719 117.266 0.110665 122.236 0.00464635 127.407C-0.101373 132.579 1.60984 137.623 4.84003 141.662C8.07022 145.7 12.6145 148.476 17.6809 149.507L28.5429 151.727L20.138 158.575C16.1462 161.844 13.4243 166.408 12.4449 171.475C11.4656 176.542 12.2904 181.792 14.7764 186.314C17.2624 190.836 21.2525 194.344 26.0542 196.23C30.8559 198.116 36.1661 198.26 41.0631 196.638L51.5859 193.149L47.7496 203.299C46.1482 207.522 45.88 212.134 46.9809 216.515C48.0819 220.895 50.4991 224.832 53.9067 227.795C52.6955 230.98 51.4812 234.329 50.2638 237.844C40.9553 264.849 33.8281 296.32 29.0819 331.379C23.1499 375.151 20.9338 424.706 22.4937 478.637C22.521 479.999 22.9778 481.316 23.799 482.402C24.6201 483.488 25.7635 484.286 27.0655 484.683C27.7112 484.89 28.3848 484.997 29.0629 485C30.0781 484.999 31.0787 484.757 31.9829 484.295C32.8871 483.833 33.6693 483.164 34.2656 482.342L67.248 437.701L109.035 479.506C110.029 480.503 111.318 481.151 112.711 481.354C114.103 481.557 115.524 481.305 116.761 480.634C117.998 479.964 118.986 478.911 119.576 477.633C120.166 476.355 120.328 474.92 120.036 473.543C114.364 446.186 104.266 391.858 100.354 335.423C98.1601 303.79 98.233 275.751 100.573 252.092C100.922 248.535 101.324 245.074 101.781 241.71C103.772 243.348 106.033 244.626 108.464 245.485C112.871 261.979 118.679 282.999 125.483 305.954C139.944 354.762 161.988 422.476 184.872 467.977C185.395 469.06 186.214 469.974 187.234 470.612C188.254 471.25 189.433 471.587 190.636 471.583C191.055 471.582 191.473 471.544 191.885 471.469C193.282 471.234 194.562 470.541 195.523 469.501C196.485 468.46 197.074 467.13 197.199 465.718L203.578 403.831L274.102 419.177C275.454 419.467 276.864 419.321 278.127 418.758C279.391 418.195 280.443 417.245 281.132 416.046C281.821 414.846 282.112 413.459 281.961 412.083C281.811 410.708 281.229 409.415 280.297 408.393L280.303 408.377ZM274.784 416.078L202.525 400.355C202.308 400.31 202.084 400.31 201.867 400.357C201.65 400.403 201.446 400.495 201.266 400.625C201.087 400.756 200.937 400.923 200.826 401.115C200.716 401.307 200.646 401.521 200.623 401.741L194.041 465.391C193.967 466.114 193.66 466.793 193.167 467.327C192.673 467.861 192.021 468.22 191.306 468.351C190.591 468.481 189.854 468.377 189.204 468.053C188.554 467.728 188.026 467.202 187.7 466.552C164.927 421.271 142.949 353.747 128.52 305.075C121.964 282.948 116.33 262.613 111.99 246.436C117.65 247.429 123.474 246.175 128.225 242.941C132.976 239.707 136.279 234.747 137.433 229.115L139.595 218.555C152.711 246.506 172.035 278.012 197.383 312.722C228.771 355.689 261.335 392.448 277.96 410.537C278.44 411.062 278.741 411.725 278.82 412.432C278.899 413.139 278.751 413.852 278.399 414.47C278.046 415.088 277.507 415.577 276.858 415.869C276.21 416.16 275.486 416.238 274.79 416.091L274.784 416.078ZM115.243 477.838C114.611 478.197 113.877 478.335 113.158 478.23C112.439 478.125 111.776 477.783 111.273 477.257L68.1991 434.152C68.0379 433.99 67.8438 433.865 67.6299 433.785C67.416 433.706 67.1875 433.673 66.96 433.69C66.7324 433.707 66.5111 433.773 66.3113 433.883C66.1115 433.993 65.9379 434.146 65.8023 434.329L31.7166 480.448C31.3012 481.01 30.7209 481.428 30.0567 481.645C29.3925 481.861 28.6774 481.865 28.0109 481.656C27.3445 481.446 26.7599 481.034 26.3387 480.476C25.9175 479.919 25.6806 479.244 25.661 478.545C24.1138 424.909 26.2951 375.637 32.1826 332.103C36.8812 297.282 43.9324 266.032 53.1426 239.227C54.2755 235.928 55.4116 232.777 56.5508 229.774C56.814 229.942 57.0835 230.092 57.353 230.263C61.7576 232.807 66.9052 233.752 71.9258 232.937C76.9463 232.123 81.5319 229.6 84.9075 225.794L92.2693 217.496L94.0099 228.211C94.6564 232.164 96.3649 235.868 98.9527 238.925C95.1481 265.309 94.5647 297.624 97.1994 335.668C101.124 392.286 111.254 446.772 116.942 474.212C117.101 474.92 117.021 475.66 116.713 476.317C116.406 476.973 115.888 477.508 115.243 477.838ZM97.1392 227.703L94.8628 213.69C94.8147 213.394 94.6838 213.117 94.4851 212.893C94.2865 212.668 94.0283 212.505 93.7404 212.421C93.5961 212.38 93.4467 212.358 93.2966 212.358C93.0723 212.358 92.8506 212.406 92.6462 212.498C92.4418 212.591 92.2593 212.725 92.1108 212.894L82.536 223.678C79.6005 226.986 75.5991 229.16 71.2273 229.823C66.8555 230.485 62.3899 229.594 58.6069 227.304C54.8238 225.014 51.9626 221.47 50.5206 217.289C49.0786 213.107 49.147 208.552 50.714 204.415L55.7455 191.144C55.8519 190.864 55.8767 190.559 55.8169 190.265C55.7572 189.971 55.6153 189.7 55.4079 189.484C55.2004 189.267 54.9359 189.114 54.6449 189.042C54.3539 188.97 54.0485 188.981 53.764 189.076L40.0739 193.634C35.8805 195.025 31.3325 194.903 27.2194 193.29C23.1063 191.676 19.6878 188.673 17.5573 184.801C15.4268 180.929 14.7188 176.432 15.5563 172.093C16.3937 167.753 18.7237 163.843 22.1417 161.043L33.1338 152.066C33.3659 151.877 33.5395 151.625 33.6344 151.34C33.7293 151.056 33.7416 150.75 33.6699 150.459C33.5982 150.168 33.4455 149.903 33.2293 149.695C33.0132 149.487 32.7426 149.345 32.4489 149.285L18.315 146.386C13.9832 145.497 10.0999 143.117 7.34021 139.66C4.58052 136.204 3.11903 131.889 3.20987 127.466C3.30071 123.043 4.93814 118.791 7.83742 115.451C10.7367 112.111 14.7145 109.893 19.0791 109.183L33.0862 106.905C33.3816 106.856 33.6572 106.725 33.8811 106.526C34.105 106.327 34.268 106.069 34.3513 105.781C34.4346 105.494 34.4347 105.188 34.3516 104.9C34.2686 104.613 34.1057 104.354 33.882 104.155L23.1024 94.5728C19.7957 91.6361 17.6224 87.6328 16.9602 83.2591C16.298 78.8854 17.1888 74.4178 19.4778 70.6331C21.7668 66.8483 25.3091 63.9858 29.489 62.5431C33.6689 61.1005 38.222 61.169 42.3566 62.7366L55.6219 67.7704C55.9021 67.8769 56.2068 67.9016 56.5006 67.8419C56.7943 67.7821 57.0651 67.6402 57.2815 67.4326C57.4979 67.2251 57.6511 66.9604 57.7232 66.6693C57.7953 66.3782 57.7835 66.0726 57.689 65.788L53.1331 52.0918C51.7424 47.8965 51.8641 43.3465 53.4769 39.2315C55.0897 35.1166 58.0919 31.6966 61.9623 29.5651C65.8326 27.4337 70.3269 26.7254 74.6648 27.5632C79.0027 28.401 82.9104 30.732 85.7096 34.1516L94.682 45.1485C94.8717 45.3808 95.1234 45.5545 95.4078 45.6494C95.6921 45.7444 95.9976 45.7567 96.2887 45.685C96.5798 45.6132 96.8446 45.4604 97.0524 45.2442C97.2601 45.028 97.4024 44.7572 97.4625 44.4634L100.36 30.3232C101.249 25.9895 103.628 22.1044 107.083 19.3435C110.538 16.5826 114.851 15.1204 119.272 15.2113C123.693 15.3022 127.942 16.9403 131.281 19.8409C134.62 22.7415 136.837 26.721 137.547 31.0876L139.823 45.101C139.872 45.3965 140.003 45.6723 140.202 45.8963C140.401 46.1203 140.659 46.2833 140.947 46.3666C141.234 46.4499 141.539 46.4501 141.827 46.367C142.115 46.2839 142.373 46.121 142.572 45.8971L152.15 35.1127C155.085 31.8046 159.087 29.6303 163.459 28.9678C167.83 28.3053 172.296 29.1965 176.079 31.4865C179.862 33.7765 182.723 37.3204 184.165 41.5022C185.607 45.6839 185.539 50.2391 183.972 54.3756L182.184 59.0922L176.477 55.343C176.163 55.1371 175.785 55.0496 175.413 55.0961C175.04 55.1426 174.696 55.32 174.441 55.5967L159.033 72.3538C145.04 62.0892 127.764 57.3282 110.492 58.9764C93.2188 60.6246 77.1541 68.5669 65.3531 81.2928C53.5522 94.0186 46.8384 110.64 46.4888 127.996C46.1391 145.351 52.1781 162.23 63.4569 175.421C74.7358 188.612 90.4676 197.195 107.66 199.539C124.852 201.882 142.306 197.821 156.701 188.129C171.096 178.436 181.427 163.789 185.731 146.972C190.034 130.156 188.009 112.343 180.041 96.9232L202.234 78.872L197.611 75.8365L200.43 73.5464C200.623 73.3891 200.777 73.1884 200.878 72.9606C200.98 72.7328 201.026 72.4842 201.013 72.2352C201.001 71.9861 200.929 71.7435 200.805 71.5272C200.681 71.3108 200.508 71.1267 200.3 70.9899L192.481 65.8514L194.599 65.1473C198.795 63.7502 203.347 63.8684 207.465 65.4814C211.582 67.0944 215.005 70.1002 217.137 73.976C219.269 77.8518 219.975 82.3526 219.134 86.6957C218.293 91.0388 215.956 94.9495 212.531 97.7479L201.539 106.724C201.307 106.914 201.134 107.166 201.039 107.45C200.944 107.735 200.932 108.04 201.003 108.332C201.075 108.623 201.228 108.888 201.444 109.096C201.66 109.304 201.931 109.446 202.224 109.506L216.358 112.405C220.69 113.294 224.573 115.674 227.333 119.13C230.093 122.587 231.554 126.902 231.463 131.325C231.373 135.748 229.735 139.999 226.836 143.34C223.937 146.68 219.959 148.898 215.594 149.608L201.587 151.886C201.292 151.934 201.016 152.066 200.792 152.265C200.568 152.463 200.405 152.722 200.322 153.009C200.239 153.297 200.239 153.603 200.322 153.89C200.405 154.178 200.568 154.437 200.791 154.636L211.571 164.218C214.878 167.155 217.051 171.158 217.713 175.532C218.375 179.905 217.484 184.373 215.195 188.158C212.906 191.942 209.364 194.805 205.184 196.248C201.004 197.69 196.451 197.622 192.317 196.054L179.07 191.02C178.79 190.915 178.486 190.891 178.193 190.951C177.9 191.011 177.629 191.153 177.413 191.36C177.198 191.568 177.045 191.832 176.973 192.123C176.901 192.413 176.912 192.718 177.006 193.003L181.562 206.699C182.959 210.896 182.841 215.451 181.228 219.57C179.616 223.69 176.612 227.113 172.738 229.246C168.864 231.379 164.365 232.086 160.024 231.245C155.682 230.403 151.773 228.066 148.976 224.639L140.004 213.642C139.814 213.41 139.563 213.236 139.278 213.141C138.994 213.046 138.688 213.034 138.397 213.106C138.106 213.177 137.841 213.33 137.634 213.547C137.426 213.763 137.284 214.033 137.223 214.327L134.326 228.468C133.437 232.801 131.058 236.686 127.603 239.447C124.148 242.208 119.835 243.67 115.414 243.579C110.993 243.489 106.744 241.85 103.405 238.95C100.066 236.049 97.849 232.07 97.1392 227.703ZM80.4847 122.714L85.1548 127.472L84.4224 128.163L109.805 154.02L177.52 98.9596C185.427 114.636 186.914 132.779 181.663 149.535C176.412 166.29 164.839 180.337 149.401 188.691C133.963 197.045 115.877 199.048 98.9867 194.275C82.0961 189.501 67.7314 178.327 58.9445 163.127C40.3529 130.91 51.4274 89.5708 83.6266 70.9709C93.8392 65.0546 105.432 61.9417 117.234 61.9468C131.448 61.952 145.302 66.4233 156.839 74.7295L110.477 125.162L98.6356 105.982C98.5117 105.782 98.3449 105.613 98.1474 105.485C97.9498 105.358 97.7264 105.276 97.4934 105.246C97.2603 105.215 97.0234 105.237 96.7999 105.31C96.5763 105.382 96.3716 105.504 96.2007 105.665L80.5196 120.436C80.3657 120.581 80.2422 120.755 80.1565 120.948C80.0707 121.141 80.0244 121.35 80.0203 121.561C80.0162 121.772 80.0543 121.982 80.1324 122.179C80.2105 122.375 80.327 122.554 80.4752 122.704L80.4847 122.714ZM196.752 72.4426L107.12 145.304L83.8834 121.632L96.9679 109.303L108.873 128.601C109.002 128.81 109.177 128.986 109.385 129.115C109.593 129.245 109.828 129.325 110.072 129.348C110.316 129.371 110.562 129.338 110.791 129.25C111.019 129.162 111.225 129.022 111.39 128.842L175.862 58.7242L196.752 72.4426Z" fill="#231F20"/>
<path d="M103.55 239.078C106.052 241.208 109.067 242.648 112.295 243.258C115.524 243.868 118.856 243.625 121.962 242.554C125.069 241.483 127.843 239.621 130.011 237.151C132.179 234.68 133.666 231.688 134.326 228.468L137.223 214.327C137.284 214.033 137.426 213.763 137.634 213.547C137.841 213.33 138.106 213.177 138.397 213.106C138.688 213.034 138.994 213.046 139.278 213.141C139.563 213.236 139.814 213.41 140.004 213.642L148.976 224.639C151.773 228.066 155.682 230.403 160.024 231.245C164.365 232.086 168.864 231.379 172.738 229.246C176.612 227.113 179.616 223.69 181.228 219.57C182.841 215.451 182.959 210.896 181.562 206.699L177.006 193.003C176.912 192.718 176.901 192.413 176.973 192.123C177.045 191.832 177.198 191.568 177.413 191.36C177.629 191.153 177.9 191.011 178.193 190.951C178.486 190.891 178.79 190.915 179.07 191.02L192.339 196.054C196.473 197.622 201.027 197.69 205.206 196.248C209.386 194.805 212.929 191.942 215.218 188.158C217.507 184.373 218.397 179.905 217.735 175.532C217.073 171.158 214.9 167.155 211.593 164.218L200.813 154.636C200.59 154.437 200.427 154.178 200.344 153.89C200.261 153.603 200.261 153.297 200.344 153.009C200.427 152.722 200.59 152.463 200.814 152.265C201.038 152.066 201.314 151.934 201.609 151.886L215.616 149.608C219.981 148.898 223.959 146.68 226.858 143.34C229.757 139.999 231.395 135.748 231.486 131.325C231.576 126.902 230.115 122.587 227.355 119.13C224.596 115.674 220.712 113.294 216.38 112.405L202.247 109.506C201.953 109.446 201.682 109.304 201.466 109.096C201.25 108.888 201.097 108.623 201.026 108.332C200.954 108.04 200.966 107.735 201.061 107.45C201.156 107.166 201.33 106.914 201.562 106.724L212.554 97.7479C215.979 94.9495 218.315 91.0388 219.156 86.6957C219.998 82.3525 219.291 77.8518 217.159 73.976C215.027 70.1001 211.605 67.0944 207.487 65.4814C203.37 63.8684 198.817 63.7502 194.622 65.1473L192.481 65.8514L200.294 70.9804C200.502 71.1172 200.675 71.3013 200.799 71.5177C200.923 71.734 200.994 71.9766 201.007 72.2256C201.02 72.4747 200.973 72.7232 200.872 72.9511C200.771 73.1789 200.617 73.3796 200.423 73.5369L197.605 75.827L202.227 78.8625L180.034 96.9137C185.596 107.674 188.299 119.684 187.886 131.791C187.473 143.898 183.956 155.696 177.673 166.052C171.391 176.407 162.553 184.974 152.009 190.929C141.465 196.885 129.567 200.029 117.459 200.06C111.249 200.056 105.067 199.237 99.07 197.624C89.0672 194.925 79.7808 190.056 71.8698 183.363C63.9587 176.67 57.6169 168.317 53.2944 158.898C48.9718 149.478 46.7743 139.222 46.858 128.857C46.9416 118.492 49.3043 108.273 53.7783 98.9245C58.2523 89.5757 64.7281 81.3267 72.7461 74.7625C80.7641 68.1984 90.1278 63.4801 100.173 60.9424C110.218 58.4047 120.698 58.1098 130.87 60.0787C141.042 62.0475 150.656 66.2319 159.03 72.3348L174.438 55.5777C174.693 55.301 175.037 55.1236 175.41 55.0771C175.782 55.0306 176.159 55.1181 176.474 55.324L182.181 59.0731L183.969 54.3565C185.529 50.2214 185.593 45.6702 184.149 41.4929C182.705 37.3156 179.845 33.776 176.064 31.4885C172.284 29.2011 167.822 28.3102 163.454 28.9704C159.086 29.6307 155.086 31.8005 152.15 35.1032L142.572 45.8876C142.373 46.1114 142.115 46.2743 141.827 46.3574C141.539 46.4405 141.234 46.4404 140.947 46.3571C140.659 46.2738 140.401 46.1107 140.202 45.8868C140.003 45.6628 139.872 45.387 139.823 45.0915L137.547 31.0781C136.837 26.7115 134.62 22.732 131.281 19.8314C127.942 16.9308 123.693 15.2927 119.272 15.2018C114.851 15.1109 110.538 16.5731 107.083 19.334C103.628 22.0949 101.249 25.98 100.36 30.3136L97.4625 44.4539C97.4024 44.7477 97.2601 45.0185 97.0524 45.2347C96.8446 45.4509 96.5798 45.6037 96.2887 45.6755C95.9976 45.7472 95.6921 45.7349 95.4078 45.6399C95.1234 45.545 94.8717 45.3713 94.682 45.139L85.7096 34.1421C82.9125 30.7157 79.0035 28.3785 74.6623 27.5367C70.3211 26.695 65.8224 27.402 61.9483 29.5349C58.0742 31.6678 55.0698 35.0915 53.4576 39.2109C51.8453 43.3303 51.7271 47.8848 53.1235 52.0823L57.6795 65.7785C57.774 66.0631 57.7858 66.3687 57.7137 66.6598C57.6416 66.9509 57.4884 67.2156 57.272 67.4231C57.0556 67.6307 56.7848 67.7725 56.4911 67.8323C56.1973 67.8921 55.8926 67.8674 55.6124 67.7609L42.3471 62.7271C38.2105 61.1537 33.6533 61.0817 29.4691 62.5236C25.2848 63.9656 21.7387 66.8302 19.4482 70.6186C17.1577 74.4069 16.268 78.879 16.934 83.2561C17.6 87.6332 19.7794 91.6379 23.0929 94.5728L33.8725 104.155C34.0962 104.354 34.259 104.613 34.3421 104.9C34.4252 105.188 34.4251 105.494 34.3418 105.781C34.2585 106.069 34.0955 106.327 33.8716 106.526C33.6477 106.725 33.3721 106.856 33.0767 106.905L19.0696 109.183C14.705 109.893 10.7272 112.111 7.82791 115.451C4.92862 118.791 3.2912 123.043 3.20036 127.466C3.10952 131.889 4.57101 136.204 7.3307 139.66C10.0904 143.117 13.9737 145.497 18.3055 146.386L32.4394 149.285C32.7331 149.345 33.0037 149.487 33.2198 149.695C33.436 149.903 33.5887 150.168 33.6604 150.459C33.7321 150.75 33.7198 151.056 33.6249 151.34C33.53 151.625 33.3564 151.877 33.1242 152.066L22.1322 161.043C18.7074 163.841 16.3711 167.752 15.5298 172.095C14.6884 176.438 15.3951 180.939 17.5271 184.815C19.659 188.691 23.0812 191.696 27.1988 193.309C31.3163 194.922 35.8687 195.041 40.0644 193.643L53.7545 189.085C54.039 188.991 54.3444 188.979 54.6354 189.051C54.9264 189.123 55.1909 189.277 55.3984 189.493C55.6058 189.71 55.7477 189.981 55.8074 190.274C55.8672 190.568 55.8424 190.873 55.736 191.154L50.7045 204.425C49.1375 208.561 49.0691 213.116 50.5111 217.298C51.9531 221.48 54.8143 225.024 58.5974 227.314C62.3804 229.604 66.846 230.495 71.2178 229.832C75.5895 229.17 79.591 226.996 82.5265 223.688L92.1013 212.903C92.2498 212.735 92.4323 212.6 92.6367 212.508C92.8411 212.415 93.0627 212.367 93.287 212.367C93.4372 212.368 93.5866 212.389 93.7309 212.431C94.0187 212.514 94.277 212.678 94.4756 212.902C94.6743 213.127 94.8052 213.403 94.8533 213.699L97.1296 227.713C97.8564 232.142 100.132 236.17 103.55 239.078Z" fill="#231F20"/>
<path d="M96.2102 105.662C96.3811 105.5 96.5858 105.379 96.8094 105.307C97.0329 105.234 97.2698 105.212 97.5029 105.243C97.7359 105.273 97.9593 105.355 98.1569 105.482C98.3544 105.609 98.5212 105.779 98.6451 105.979L110.474 125.15L156.836 74.7169C145.298 66.4106 131.445 61.9393 117.23 61.9342C105.429 61.929 93.836 65.042 83.6235 70.9582C51.4242 89.5581 40.3497 130.907 58.9414 163.114C67.7283 178.315 82.0929 189.489 98.9835 194.262C115.874 199.036 133.96 197.033 149.397 188.678C164.835 180.324 176.409 166.277 181.66 149.522C186.91 132.767 185.424 114.623 177.517 98.9469L109.805 154.004L84.4224 128.147L85.1548 127.456L80.4847 122.698C80.3366 122.547 80.22 122.369 80.1419 122.172C80.0638 121.976 80.0257 121.766 80.0298 121.555C80.0339 121.343 80.0802 121.135 80.166 120.942C80.2517 120.749 80.3752 120.575 80.5291 120.43L96.2102 105.662Z" fill="#231F20"/>
<path d="M175.862 58.7242L111.39 128.842C111.225 129.022 111.019 129.162 110.791 129.25C110.562 129.338 110.316 129.371 110.072 129.348C109.828 129.325 109.593 129.245 109.385 129.115C109.177 128.986 109.002 128.81 108.873 128.601L96.9679 109.303L83.8834 121.632L107.12 145.304L196.752 72.4426L175.862 58.7242Z" fill="#231F20"/>
<path d="M106.19 323.658C103.555 285.624 104.148 253.309 107.943 226.916C105.359 223.857 103.654 220.154 103.01 216.201L101.269 205.486L93.9075 213.794C90.5314 217.599 85.9457 220.122 80.9252 220.936C75.9047 221.749 70.7573 220.804 66.353 218.26C66.0835 218.101 65.814 217.943 65.5508 217.771C64.4137 220.778 63.2776 223.929 62.1426 227.223C52.9482 254.029 45.8812 285.269 41.1826 320.099C35.3077 363.637 33.1296 412.909 34.661 466.545C34.6806 467.244 34.9175 467.919 35.3387 468.476C35.7599 469.034 36.3445 469.446 37.0109 469.656C37.6774 469.865 38.3925 469.861 39.0567 469.645C39.7209 469.428 40.3012 469.01 40.7166 468.448L74.7896 422.329C74.9252 422.146 75.0989 421.993 75.2987 421.883C75.4985 421.773 75.7197 421.707 75.9473 421.69C76.1748 421.673 76.4034 421.706 76.6172 421.785C76.8311 421.865 77.0253 421.99 77.1864 422.152L120.273 465.257C120.783 465.77 121.445 466.103 122.16 466.208C122.875 466.314 123.605 466.185 124.241 465.842C124.877 465.498 125.386 464.959 125.69 464.303C125.995 463.647 126.08 462.911 125.932 462.203C120.245 434.763 110.115 380.276 106.19 323.658Z" fill="#ED203D"/>
<path d="M286.96 398.524C270.335 380.444 237.758 343.676 206.383 300.71C181.019 266 161.711 234.493 148.595 206.543L146.433 217.102C145.283 222.737 141.981 227.701 137.23 230.938C132.478 234.176 126.652 235.431 120.99 234.436C125.33 250.613 130.964 270.961 137.52 293.088C151.949 341.747 173.927 409.271 196.7 454.565C197.026 455.215 197.554 455.741 198.204 456.065C198.854 456.389 199.591 456.494 200.306 456.363C201.021 456.232 201.673 455.873 202.167 455.34C202.66 454.806 202.967 454.127 203.041 453.404L209.607 389.754C209.631 389.533 209.7 389.32 209.811 389.128C209.921 388.935 210.071 388.769 210.251 388.638C210.43 388.507 210.635 388.416 210.851 388.369C211.068 388.323 211.293 388.322 211.51 388.368L283.768 404.091C284.463 404.238 285.188 404.16 285.836 403.869C286.485 403.577 287.024 403.088 287.377 402.47C287.729 401.852 287.877 401.139 287.798 400.432C287.719 399.725 287.418 399.062 286.938 398.537L286.96 398.524Z" fill="#F38BA3"/>
<path d="M289.303 396.377C272.716 378.338 240.225 341.678 208.942 298.826C186.945 268.693 169.517 241.031 156.781 216.039C160.266 219.621 164.863 221.915 169.819 222.545C174.776 223.175 179.799 222.104 184.069 219.508C188.339 216.912 191.602 212.944 193.326 208.252C195.049 203.56 195.131 198.422 193.558 193.678L190.071 183.15L200.216 187.001C205.044 188.831 210.361 188.911 215.241 187.226C220.122 185.541 224.258 182.199 226.931 177.78C229.603 173.36 230.643 168.144 229.87 163.037C229.097 157.93 226.559 153.255 222.698 149.826L214.404 142.461L225.114 140.72C230.218 139.898 234.873 137.311 238.266 133.408C241.659 129.505 243.575 124.535 243.681 119.364C243.787 114.193 242.076 109.149 238.846 105.11C235.616 101.072 231.071 98.2953 226.005 97.265L215.143 95.0447L223.548 88.2125C227.54 84.9437 230.262 80.3798 231.241 75.3129C232.22 70.246 231.395 64.9959 228.91 60.474C226.424 55.952 222.433 52.4436 217.632 50.5578C212.83 48.6719 207.52 48.5275 202.623 50.1498L198.127 51.647L193.898 48.8811L195.936 43.4889C197.766 38.6588 197.845 33.3401 196.161 28.4573C194.478 23.5746 191.137 19.4366 186.719 16.7628C182.302 14.089 177.088 13.0484 171.983 13.822C166.878 14.5956 162.206 17.1344 158.778 20.9971L151.417 29.2947L149.676 18.5801C148.855 13.4735 146.268 8.81712 142.368 5.42261C138.467 2.0281 133.499 0.110715 128.33 0.00464843C123.161 -0.101418 118.119 1.61056 114.082 4.84219C110.046 8.07382 107.27 12.6202 106.241 17.6888L104.021 28.5557L97.1731 20.147C93.9058 16.1534 89.3439 13.4303 84.2793 12.4505C79.2146 11.4707 73.9669 12.2959 69.447 14.783C64.927 17.2701 61.4202 21.262 59.5352 26.0658C57.6501 30.8697 57.5059 36.1823 59.1275 41.0814L62.615 51.6089L52.4695 47.7709C47.6416 45.9407 42.3252 45.861 37.4446 47.5457C32.5641 49.2304 28.428 52.5729 25.7553 56.9922C23.0827 61.4114 22.0426 66.628 22.8158 71.7349C23.5891 76.8419 26.1267 81.5163 29.9877 84.9454L38.2816 92.3105L27.5718 94.0519C22.4675 94.8735 17.8132 97.4611 14.4202 101.364C11.0272 105.266 9.11067 110.236 9.00465 115.407C8.89863 120.579 10.6098 125.623 13.84 129.662C17.0702 133.7 21.6145 136.476 26.6809 137.507L37.5429 139.727L29.138 146.575C25.1462 149.844 22.4243 154.408 21.4449 159.475C20.4656 164.542 21.2904 169.792 23.7764 174.314C26.2624 178.836 30.2525 182.344 35.0542 184.23C39.8559 186.116 45.1661 186.26 50.0631 184.638L60.5859 181.149L56.7496 191.299C55.1482 195.522 54.88 200.134 55.9809 204.515C57.0819 208.895 59.4991 212.832 62.9067 215.795C61.6955 218.98 60.4812 222.329 59.2638 225.844C49.9553 252.849 42.8281 284.32 38.0819 319.379C32.1499 363.151 29.9338 412.706 31.4937 466.637C31.521 467.999 31.9778 469.316 32.799 470.402C33.6201 471.488 34.7635 472.286 36.0655 472.683C36.7112 472.89 37.3848 472.997 38.0629 473C39.0781 472.999 40.0787 472.757 40.9829 472.295C41.8871 471.833 42.6693 471.164 43.2656 470.342L76.248 425.701L118.035 467.506C119.029 468.503 120.318 469.151 121.711 469.354C123.103 469.557 124.524 469.305 125.761 468.634C126.998 467.964 127.986 466.911 128.576 465.633C129.166 464.355 129.328 462.92 129.036 461.543C123.364 434.186 113.266 379.858 109.354 323.423C107.16 291.79 107.233 263.751 109.573 240.092C109.922 236.535 110.324 233.074 110.781 229.71C112.772 231.348 115.033 232.626 117.464 233.485C121.871 249.979 127.679 270.999 134.483 293.954C148.944 342.762 170.988 410.476 193.872 455.977C194.395 457.06 195.214 457.974 196.234 458.612C197.254 459.25 198.433 459.587 199.636 459.583C200.055 459.582 200.473 459.544 200.885 459.469C202.282 459.234 203.562 458.541 204.523 457.501C205.485 456.46 206.074 455.13 206.199 453.718L212.578 391.831L283.102 407.177C284.454 407.467 285.864 407.321 287.127 406.758C288.391 406.195 289.443 405.245 290.132 404.046C290.821 402.846 291.112 401.459 290.961 400.083C290.811 398.708 290.229 397.415 289.297 396.393L289.303 396.377ZM283.784 404.078L211.525 388.355C211.308 388.31 211.084 388.31 210.867 388.357C210.65 388.403 210.446 388.495 210.266 388.625C210.087 388.756 209.937 388.923 209.826 389.115C209.716 389.307 209.646 389.521 209.623 389.741L203.041 453.391C202.967 454.114 202.66 454.793 202.167 455.327C201.673 455.861 201.021 456.22 200.306 456.351C199.591 456.481 198.854 456.377 198.204 456.053C197.554 455.728 197.026 455.202 196.7 454.552C173.927 409.271 151.949 341.747 137.52 293.075C130.964 270.948 125.33 250.613 120.99 234.436C126.65 235.429 132.474 234.175 137.225 230.941C141.976 227.707 145.279 222.747 146.433 217.115L148.595 206.555C161.711 234.506 181.035 266.012 206.383 300.722C237.771 343.689 270.335 380.448 286.96 398.537C287.44 399.062 287.741 399.725 287.82 400.432C287.899 401.139 287.751 401.852 287.399 402.47C287.046 403.088 286.507 403.577 285.858 403.869C285.21 404.16 284.486 404.238 283.79 404.091L283.784 404.078ZM124.243 465.838C123.611 466.197 122.877 466.335 122.158 466.23C121.439 466.125 120.776 465.783 120.273 465.257L77.1991 422.152C77.0379 421.99 76.8438 421.865 76.6299 421.785C76.416 421.706 76.1875 421.673 75.96 421.69C75.7324 421.707 75.5111 421.773 75.3113 421.883C75.1115 421.993 74.9379 422.146 74.8023 422.329L40.7166 468.448C40.3012 469.01 39.7209 469.428 39.0567 469.645C38.3925 469.861 37.6774 469.865 37.0109 469.656C36.3445 469.446 35.7599 469.034 35.3387 468.476C34.9175 467.919 34.6806 467.244 34.661 466.545C33.1138 412.909 35.2951 363.637 41.1826 320.103C45.8812 285.282 52.9324 254.032 62.1426 227.227C63.2755 223.928 64.4116 220.777 65.5508 217.774C65.814 217.942 66.0835 218.092 66.353 218.263C70.7576 220.807 75.9052 221.752 80.9258 220.937C85.9463 220.123 90.5319 217.6 93.9075 213.794L101.269 205.496L103.01 216.211C103.656 220.164 105.365 223.868 107.953 226.925C104.148 253.309 103.565 285.624 106.199 323.668C110.124 380.286 120.254 434.772 125.942 462.212C126.101 462.92 126.021 463.66 125.713 464.317C125.406 464.973 124.888 465.508 124.243 465.838ZM106.139 215.703L103.863 201.69C103.815 201.394 103.684 201.117 103.485 200.893C103.286 200.668 103.028 200.505 102.74 200.421C102.596 200.38 102.447 200.358 102.297 200.358C102.072 200.358 101.851 200.406 101.646 200.498C101.442 200.591 101.259 200.725 101.111 200.894L91.536 211.678C88.6005 214.986 84.5991 217.16 80.2273 217.823C75.8555 218.485 71.3899 217.594 67.6069 215.304C63.8238 213.014 60.9626 209.47 59.5206 205.289C58.0786 201.107 58.147 196.552 59.714 192.415L64.7455 179.144C64.8519 178.864 64.8767 178.559 64.8169 178.265C64.7572 177.971 64.6153 177.7 64.4079 177.484C64.2004 177.267 63.9359 177.114 63.6449 177.042C63.3539 176.97 63.0485 176.981 62.764 177.076L49.0739 181.634C44.8805 183.025 40.3325 182.903 36.2194 181.29C32.1063 179.676 28.6878 176.673 26.5573 172.801C24.4268 168.929 23.7188 164.432 24.5563 160.093C25.3937 155.753 27.7237 151.843 31.1417 149.043L42.1338 140.066C42.3659 139.877 42.5395 139.625 42.6344 139.34C42.7293 139.056 42.7416 138.75 42.6699 138.459C42.5982 138.168 42.4455 137.903 42.2293 137.695C42.0132 137.487 41.7426 137.345 41.4489 137.285L27.315 134.386C22.9832 133.497 19.0999 131.117 16.3402 127.66C13.5805 124.204 12.119 119.889 12.2099 115.466C12.3007 111.043 13.9381 106.791 16.8374 103.451C19.7367 100.111 23.7145 97.8927 28.0791 97.1825L42.0862 94.9051C42.3816 94.8565 42.6572 94.7251 42.8811 94.5262C43.105 94.3273 43.268 94.069 43.3513 93.7813C43.4346 93.4936 43.4347 93.1881 43.3516 92.9003C43.2686 92.6125 43.1057 92.3541 42.882 92.1551L32.1024 82.5728C28.7957 79.6361 26.6224 75.6328 25.9602 71.2591C25.298 66.8854 26.1888 62.4178 28.4778 58.6331C30.7668 54.8483 34.3091 51.9858 38.489 50.5431C42.6689 49.1005 47.222 49.169 51.3566 50.7366L64.6219 55.7704C64.9021 55.8769 65.2068 55.9016 65.5006 55.8419C65.7943 55.7821 66.0651 55.6402 66.2815 55.4326C66.4979 55.2251 66.6511 54.9604 66.7232 54.6693C66.7953 54.3782 66.7835 54.0726 66.689 53.788L62.1331 40.0918C60.7424 35.8965 60.8641 31.3465 62.4769 27.2315C64.0897 23.1166 67.0919 19.6966 70.9623 17.5651C74.8326 15.4337 79.3269 14.7254 83.6648 15.5632C88.0027 16.401 91.9104 18.732 94.7096 22.1516L103.682 33.1485C103.872 33.3808 104.123 33.5545 104.408 33.6494C104.692 33.7444 104.998 33.7567 105.289 33.685C105.58 33.6132 105.845 33.4604 106.052 33.2442C106.26 33.028 106.402 32.7572 106.463 32.4634L109.36 18.3232C110.249 13.9895 112.628 10.1044 116.083 7.34349C119.538 4.58257 123.851 3.12043 128.272 3.21131C132.693 3.30219 136.942 4.94034 140.281 7.84092C143.62 10.7415 145.837 14.721 146.547 19.0876L148.823 33.101C148.872 33.3965 149.003 33.6723 149.202 33.8963C149.401 34.1203 149.659 34.2833 149.947 34.3666C150.234 34.4499 150.539 34.4501 150.827 34.367C151.115 34.2839 151.373 34.121 151.572 33.8971L161.15 23.1127C164.085 19.8046 168.087 17.6303 172.459 16.9678C176.83 16.3053 181.296 17.1965 185.079 19.4865C188.862 21.7765 191.723 25.3204 193.165 29.5022C194.607 33.6839 194.539 38.2391 192.972 42.3756L191.184 47.0922L185.477 43.343C185.163 43.1371 184.785 43.0496 184.413 43.0961C184.04 43.1426 183.696 43.32 183.441 43.5967L168.033 60.3538C154.04 50.0892 136.764 45.3282 119.492 46.9764C102.219 48.6246 86.1541 56.5669 74.3531 69.2928C62.5522 82.0186 55.8384 98.6401 55.4888 115.996C55.1391 133.351 61.1781 150.23 72.4569 163.421C83.7358 176.612 99.4676 185.195 116.66 187.539C133.852 189.882 151.306 185.821 165.701 176.129C180.096 166.436 190.427 151.789 194.731 134.972C199.034 118.156 197.009 100.343 189.041 84.9232L211.234 66.872L206.611 63.8365L209.43 61.5464C209.623 61.3891 209.777 61.1884 209.878 60.9606C209.98 60.7328 210.026 60.4842 210.013 60.2352C210.001 59.9861 209.929 59.7435 209.805 59.5272C209.681 59.3108 209.508 59.1267 209.3 58.9899L201.481 53.8514L203.599 53.1473C207.795 51.7502 212.347 51.8684 216.465 53.4814C220.582 55.0944 224.005 58.1002 226.137 61.976C228.269 65.8518 228.975 70.3526 228.134 74.6957C227.293 79.0388 224.956 82.9495 221.531 85.7479L210.539 94.7243C210.307 94.9141 210.134 95.1659 210.039 95.4504C209.944 95.7349 209.932 96.0405 210.003 96.3317C210.075 96.6229 210.228 96.8878 210.444 97.0957C210.66 97.3036 210.931 97.4459 211.224 97.5061L225.358 100.405C229.69 101.294 233.573 103.674 236.333 107.13C239.093 110.587 240.554 114.902 240.463 119.325C240.373 123.748 238.735 127.999 235.836 131.34C232.937 134.68 228.959 136.898 224.594 137.608L210.587 139.886C210.292 139.934 210.016 140.066 209.792 140.265C209.568 140.463 209.405 140.722 209.322 141.009C209.239 141.297 209.239 141.603 209.322 141.89C209.405 142.178 209.568 142.437 209.791 142.636L220.571 152.218C223.878 155.155 226.051 159.158 226.713 163.532C227.375 167.905 226.484 172.373 224.195 176.158C221.906 179.942 218.364 182.805 214.184 184.248C210.004 185.69 205.451 185.622 201.317 184.054L188.07 179.02C187.79 178.915 187.486 178.891 187.193 178.951C186.9 179.011 186.629 179.153 186.413 179.36C186.198 179.568 186.045 179.832 185.973 180.123C185.901 180.413 185.912 180.718 186.006 181.003L190.562 194.699C191.959 198.896 191.841 203.451 190.228 207.57C188.616 211.69 185.612 215.113 181.738 217.246C177.864 219.379 173.365 220.086 169.024 219.245C164.682 218.403 160.773 216.066 157.976 212.639L149.004 201.642C148.814 201.41 148.563 201.236 148.278 201.141C147.994 201.046 147.688 201.034 147.397 201.106C147.106 201.177 146.841 201.33 146.634 201.547C146.426 201.763 146.284 202.033 146.223 202.327L143.326 216.468C142.437 220.801 140.058 224.686 136.603 227.447C133.148 230.208 128.835 231.67 124.414 231.579C119.993 231.489 115.744 229.85 112.405 226.95C109.066 224.049 106.849 220.07 106.139 215.703ZM89.4847 110.714L94.1548 115.472L93.4224 116.163L118.805 142.02L186.52 86.9596C194.427 102.636 195.914 120.779 190.663 137.535C185.412 154.29 173.839 168.337 158.401 176.691C142.963 185.045 124.877 187.048 107.987 182.275C91.0961 177.501 76.7314 166.327 67.9445 151.127C49.3529 118.91 60.4274 77.5708 92.6266 58.9709C102.839 53.0546 114.432 49.9417 126.234 49.9468C140.448 49.952 154.302 54.4233 165.839 62.7295L119.477 113.162L107.636 93.9821C107.512 93.7823 107.345 93.6126 107.147 93.4853C106.95 93.3579 106.726 93.2761 106.493 93.2457C106.26 93.2153 106.023 93.2372 105.8 93.3097C105.576 93.3822 105.372 93.5035 105.201 93.6649L89.5196 108.436C89.3657 108.581 89.2422 108.755 89.1565 108.948C89.0707 109.141 89.0244 109.35 89.0203 109.561C89.0162 109.772 89.0543 109.982 89.1324 110.179C89.2105 110.375 89.327 110.554 89.4752 110.704L89.4847 110.714ZM205.752 60.4426L116.12 133.304L92.8834 109.632L105.968 97.3031L117.873 116.601C118.002 116.81 118.177 116.986 118.385 117.115C118.593 117.245 118.828 117.325 119.072 117.348C119.316 117.371 119.562 117.338 119.791 117.25C120.019 117.162 120.225 117.022 120.39 116.842L184.862 46.7242L205.752 60.4426Z" fill="#231F20"/>
<path d="M112.55 227.078C115.052 229.208 118.067 230.648 121.295 231.258C124.524 231.868 127.856 231.625 130.962 230.554C134.069 229.483 136.843 227.621 139.011 225.151C141.179 222.68 142.666 219.688 143.326 216.468L146.223 202.327C146.284 202.033 146.426 201.763 146.634 201.547C146.841 201.33 147.106 201.177 147.397 201.106C147.688 201.034 147.994 201.046 148.278 201.141C148.563 201.236 148.814 201.41 149.004 201.642L157.976 212.639C160.773 216.066 164.682 218.403 169.024 219.245C173.365 220.086 177.864 219.379 181.738 217.246C185.612 215.113 188.616 211.69 190.228 207.57C191.841 203.451 191.959 198.896 190.562 194.699L186.006 181.003C185.912 180.718 185.901 180.413 185.973 180.123C186.045 179.832 186.198 179.568 186.413 179.36C186.629 179.153 186.9 179.011 187.193 178.951C187.486 178.891 187.79 178.915 188.07 179.02L201.339 184.054C205.473 185.622 210.027 185.69 214.206 184.248C218.386 182.805 221.929 179.942 224.218 176.158C226.507 172.373 227.397 167.905 226.735 163.532C226.073 159.158 223.9 155.155 220.593 152.218L209.813 142.636C209.59 142.437 209.427 142.178 209.344 141.89C209.261 141.603 209.261 141.297 209.344 141.009C209.427 140.722 209.59 140.463 209.814 140.265C210.038 140.066 210.314 139.934 210.609 139.886L224.616 137.608C228.981 136.898 232.959 134.68 235.858 131.34C238.757 127.999 240.395 123.748 240.486 119.325C240.576 114.902 239.115 110.587 236.355 107.13C233.596 103.674 229.712 101.294 225.38 100.405L211.247 97.5061C210.953 97.4459 210.682 97.3036 210.466 97.0957C210.25 96.8878 210.097 96.6229 210.026 96.3317C209.954 96.0405 209.966 95.7349 210.061 95.4504C210.156 95.1659 210.33 94.9141 210.562 94.7243L221.554 85.7479C224.979 82.9495 227.315 79.0388 228.156 74.6957C228.998 70.3525 228.291 65.8518 226.159 61.976C224.027 58.1001 220.605 55.0944 216.487 53.4814C212.37 51.8684 207.817 51.7502 203.622 53.1473L201.481 53.8514L209.294 58.9804C209.502 59.1172 209.675 59.3013 209.799 59.5177C209.923 59.734 209.994 59.9766 210.007 60.2256C210.02 60.4747 209.973 60.7232 209.872 60.9511C209.771 61.1789 209.617 61.3796 209.423 61.5369L206.605 63.827L211.227 66.8625L189.034 84.9137C194.596 95.6743 197.299 107.684 196.886 119.791C196.473 131.898 192.956 143.696 186.673 154.052C180.391 164.407 171.553 172.974 161.009 178.929C150.465 184.885 138.567 188.029 126.459 188.06C120.249 188.056 114.067 187.237 108.07 185.624C98.0672 182.925 88.7808 178.056 80.8698 171.363C72.9587 164.67 66.6169 156.317 62.2944 146.898C57.9718 137.478 55.7743 127.222 55.858 116.857C55.9416 106.492 58.3043 96.2732 62.7783 86.9245C67.2523 77.5757 73.7281 69.3267 81.7461 62.7625C89.7641 56.1984 99.1278 51.4801 109.173 48.9424C119.218 46.4047 129.698 46.1098 139.87 48.0787C150.042 50.0475 159.656 54.2319 168.03 60.3348L183.438 43.5777C183.693 43.301 184.037 43.1236 184.41 43.0771C184.782 43.0306 185.159 43.1181 185.474 43.324L191.181 47.0731L192.969 42.3565C194.529 38.2214 194.593 33.6702 193.149 29.4929C191.705 25.3156 188.845 21.776 185.064 19.4885C181.284 17.2011 176.822 16.3102 172.454 16.9704C168.086 17.6307 164.086 19.8005 161.15 23.1032L151.572 33.8876C151.373 34.1114 151.115 34.2743 150.827 34.3574C150.539 34.4405 150.234 34.4404 149.947 34.3571C149.659 34.2738 149.401 34.1107 149.202 33.8868C149.003 33.6628 148.872 33.387 148.823 33.0915L146.547 19.0781C145.837 14.7115 143.62 10.732 140.281 7.83141C136.942 4.93082 132.693 3.29267 128.272 3.20179C123.851 3.11091 119.538 4.57305 116.083 7.33397C112.628 10.0949 110.249 13.98 109.36 18.3136L106.463 32.4539C106.402 32.7477 106.26 33.0185 106.052 33.2347C105.845 33.4509 105.58 33.6037 105.289 33.6755C104.998 33.7472 104.692 33.7349 104.408 33.6399C104.123 33.545 103.872 33.3713 103.682 33.139L94.7096 22.1421C91.9125 18.7157 88.0035 16.3785 83.6623 15.5367C79.3211 14.695 74.8224 15.402 70.9483 17.5349C67.0742 19.6678 64.0698 23.0915 62.4576 27.2109C60.8453 31.3303 60.7271 35.8848 62.1235 40.0823L66.6795 53.7785C66.774 54.0631 66.7858 54.3687 66.7137 54.6598C66.6416 54.9509 66.4884 55.2156 66.272 55.4231C66.0556 55.6307 65.7848 55.7725 65.4911 55.8323C65.1973 55.8921 64.8926 55.8674 64.6124 55.7609L51.3471 50.7271C47.2105 49.1537 42.6533 49.0817 38.4691 50.5236C34.2848 51.9656 30.7387 54.8302 28.4482 58.6186C26.1577 62.4069 25.268 66.879 25.934 71.2561C26.6 75.6332 28.7794 79.6379 32.0929 82.5728L42.8725 92.1551C43.0962 92.3541 43.259 92.6125 43.3421 92.9003C43.4252 93.1881 43.4251 93.4936 43.3418 93.7813C43.2585 94.069 43.0955 94.3273 42.8716 94.5262C42.6477 94.7251 42.3721 94.8565 42.0767 94.9051L28.0696 97.1825C23.705 97.8927 19.7272 100.111 16.8279 103.451C13.9286 106.791 12.2912 111.043 12.2004 115.466C12.1095 119.889 13.571 124.204 16.3307 127.66C19.0904 131.117 22.9737 133.497 27.3055 134.386L41.4394 137.285C41.7331 137.345 42.0037 137.487 42.2198 137.695C42.436 137.903 42.5887 138.168 42.6604 138.459C42.7321 138.75 42.7198 139.056 42.6249 139.34C42.53 139.625 42.3564 139.877 42.1242 140.066L31.1322 149.043C27.7074 151.841 25.3711 155.752 24.5298 160.095C23.6884 164.438 24.3951 168.939 26.5271 172.815C28.659 176.691 32.0812 179.696 36.1988 181.309C40.3163 182.922 44.8687 183.041 49.0644 181.643L62.7545 177.085C63.039 176.991 63.3444 176.979 63.6354 177.051C63.9264 177.123 64.1909 177.277 64.3984 177.493C64.6058 177.71 64.7477 177.981 64.8074 178.274C64.8672 178.568 64.8424 178.873 64.736 179.154L59.7045 192.425C58.1375 196.561 58.0691 201.116 59.5111 205.298C60.9531 209.48 63.8143 213.024 67.5974 215.314C71.3804 217.604 75.846 218.495 80.2178 217.832C84.5895 217.17 88.591 214.996 91.5265 211.688L101.101 200.903C101.25 200.735 101.432 200.6 101.637 200.508C101.841 200.415 102.063 200.367 102.287 200.367C102.437 200.368 102.587 200.389 102.731 200.431C103.019 200.514 103.277 200.678 103.476 200.902C103.674 201.127 103.805 201.403 103.853 201.699L106.13 215.713C106.856 220.142 109.132 224.17 112.55 227.078Z" fill="#F9F4DA"/>
<path d="M105.21 93.6617C105.381 93.5004 105.586 93.3791 105.809 93.3065C106.033 93.234 106.27 93.2122 106.503 93.2425C106.736 93.2729 106.959 93.3547 107.157 93.4821C107.354 93.6094 107.521 93.7792 107.645 93.9789L119.474 113.15L165.836 62.7169C154.298 54.4106 140.445 49.9393 126.23 49.9342C114.429 49.929 102.836 53.042 92.6235 58.9582C60.4242 77.5581 49.3497 118.907 67.9414 151.114C76.7283 166.315 91.0929 177.489 107.984 182.262C124.874 187.036 142.96 185.033 158.397 176.678C173.835 168.324 185.409 154.277 190.66 137.522C195.91 120.767 194.424 102.623 186.517 86.9469L118.805 142.004L93.4224 116.147L94.1548 115.456L89.4847 110.698C89.3366 110.547 89.22 110.369 89.1419 110.172C89.0638 109.976 89.0257 109.766 89.0298 109.555C89.0339 109.343 89.0802 109.135 89.166 108.942C89.2517 108.749 89.3752 108.575 89.5291 108.43L105.21 93.6617Z" fill="#FCBA28"/>
<path d="M184.862 46.7242L120.39 116.842C120.225 117.022 120.019 117.162 119.791 117.25C119.562 117.338 119.316 117.371 119.072 117.348C118.828 117.325 118.593 117.245 118.385 117.115C118.177 116.986 118.002 116.81 117.873 116.601L105.968 97.3031L92.8834 109.632L116.12 133.304L205.752 60.4426L184.862 46.7242Z" fill="#0BA95B"/>
</svg>
